<?xml version="1.0" encoding="UTF-8" standalone="no"?>
<!DOCTYPE svg PUBLIC "-//W3C//DTD SVG 1.1//EN" "http://www.w3.org/Graphics/SVG/1.1/DTD/svg11.dtd">
<svg width="100%" height="100%" viewBox="0 0 198 69" version="1.1" xmlns="http://www.w3.org/2000/svg" xmlns:xlink="http://www.w3.org/1999/xlink" xml:space="preserve" xmlns:serif="http://www.serif.com/" style="fill-rule:evenodd;clip-rule:evenodd;stroke-linejoin:round;stroke-miterlimit:2;">
    <g transform="matrix(0.681287,0,0,0.533855,-52.5454,-78.9655)">
        <path d="M101.127,256.638L101.127,180.638L77.127,180.638L77.127,276L125.127,276L125.127,256.638L101.127,256.638Z" style="fill:white;"/>
    </g>
    <g transform="matrix(0.394874,0,0,0.297281,-8.85702,-25.0283)">
        <g transform="matrix(0.217936,0,0,1.69554,194.223,-202.937)">
            <rect x="129" y="204" width="190" height="101" style="fill:white;"/>
        </g>
        <g transform="matrix(0.217936,0,0,0.483626,194.223,-14.4692)">
            <rect x="129" y="204" width="190" height="101" style="fill:white;"/>
        </g>
    </g>
    <g transform="matrix(0.681287,0,0,0.534844,-52.5454,-79.1396)">
        <path d="M344.051,234.396L312.989,180.63L290,180.63L290,275.815L312.989,275.815L312.989,226.573L344.092,275.815L367.04,275.815L367.04,180.63L344.051,180.63L344.051,234.396Z" style="fill:white;"/>
    </g>
    <g transform="matrix(0.681287,0,0,0.533855,-51.8684,-78.6759)">
        <path d="M186.006,275.365L186.006,147.373L130.127,147.373L130.127,275.365L153.116,275.365L153.116,234.175L163.016,234.175L163.016,275.365L186.006,275.365ZM163.016,171.373L153.116,171.373L153.116,210.175L163.016,210.175L163.016,171.373Z" style="fill:white;"/>
    </g>
    <g transform="matrix(0.581586,0,0,0.407702,-30.1817,-51.0289)">
        <path d="M294.24,292.879L294.24,168.01L222.76,168.01L222.76,292.879L294.24,292.879ZM263.76,202.137L263.76,264.825C263.76,264.825 253.24,264.825 253.24,264.825C253.24,264.825 253.24,202.137 253.24,202.137L263.76,202.137Z" style="fill:white;"/>
    </g>
    <g transform="matrix(1,0,0,1,0,1.78813)">
        <g transform="matrix(1,0,0,1,18.9827,3.3784)">
            <path d="M95.289,17.469C98.449,20.951 102.827,26.08 107.78,32.41C110.268,35.591 112.777,39.047 115.434,42.691C117.259,45.195 118.981,47.861 120.971,50.404C121.806,51.47 122.736,52.447 123.664,53.452C124.057,53.877 124.448,54.271 124.874,54.666C125.915,55.631 126.885,56.451 128.003,57.337C129.748,58.72 131.237,59.627 133,61C132.745,58.958 132.603,57.376 132.145,55.375C131.858,54.123 131.502,53.048 131.052,51.851C130.51,50.408 129.92,49.064 129.161,47.737C128.418,46.437 127.515,45.244 126.596,44.086C124.841,41.877 122.913,39.879 120.994,37.951C118.984,35.931 116.965,34.068 114.936,32.308C107.194,25.59 100.008,20.661 95.289,17.469Z" style="fill:rgb(106,235,183);"/>
        </g>
        <g transform="matrix(1,0,0,1,37.5144,-9.04534)">
            <path d="M95.289,17.469C98.449,20.951 102.827,26.08 107.78,32.41C110.268,35.591 112.777,39.047 115.434,42.691C117.259,45.195 118.981,47.861 120.971,50.404C121.806,51.47 122.736,52.447 123.664,53.452C124.057,53.877 124.448,54.271 124.874,54.666C125.915,55.631 126.885,56.451 128.003,57.337C129.748,58.72 131.237,59.627 133,61C132.745,58.958 132.603,57.376 132.145,55.375C131.858,54.123 131.502,53.048 131.052,51.851C130.51,50.408 129.92,49.064 129.161,47.737C128.418,46.437 127.515,45.244 126.596,44.086C124.841,41.877 122.913,39.879 120.994,37.951C118.984,35.931 116.965,34.068 114.936,32.308C107.194,25.59 100.008,20.661 95.289,17.469Z" style="fill:rgb(106,235,183);"/>
        </g>
        <g transform="matrix(1,0,0,1,64.5144,-9.04534)">
            <path d="M95.289,17.469C98.449,20.951 102.827,26.08 107.78,32.41C110.268,35.591 112.777,39.047 115.434,42.691C117.259,45.195 118.981,47.861 120.971,50.404C121.806,51.47 122.736,52.447 123.664,53.452C124.057,53.877 124.448,54.271 124.874,54.666C125.915,55.631 126.885,56.451 128.003,57.337C129.748,58.72 131.237,59.627 133,61C132.745,58.958 132.603,57.376 132.145,55.375C131.858,54.123 131.502,53.048 131.052,51.851C130.51,50.408 129.92,49.064 129.161,47.737C128.418,46.437 127.515,45.244 126.596,44.086C124.841,41.877 122.913,39.879 120.994,37.951C118.984,35.931 116.965,34.068 114.936,32.308C107.194,25.59 100.008,20.661 95.289,17.469Z" style="fill:rgb(106,235,183);"/>
        </g>
    </g>
</svg>
