<?xml version="1.0" encoding="UTF-8" standalone="no"?>
<!DOCTYPE svg PUBLIC "-//W3C//DTD SVG 1.1//EN" "http://www.w3.org/Graphics/SVG/1.1/DTD/svg11.dtd">
<svg width="100%" height="100%" viewBox="0 0 150 150" version="1.1" xmlns="http://www.w3.org/2000/svg" xmlns:xlink="http://www.w3.org/1999/xlink" xml:space="preserve" xmlns:serif="http://www.serif.com/" style="fill-rule:evenodd;clip-rule:evenodd;stroke-linejoin:round;stroke-miterlimit:2;">
    <g transform="matrix(1,0,0,1,9,0)">
        <path d="M141,37.5C141,16.803 124.197,0 103.5,0L28.5,0C7.803,0 -9,16.803 -9,37.5L-9,112.5C-9,133.197 7.803,150 28.5,150L103.5,150C124.197,150 141,133.197 141,112.5L141,37.5Z" style="fill:rgb(29,55,78);"/>
    </g>
    <g transform="matrix(0.222514,0,0,0.210616,12.0459,14.728)">
        <path d="M283.055,577.939C248.139,550.196 196.612,581.422 162.259,547.471C113.702,523.522 119.989,467.13 101.726,425.33C74.158,389.256 81.699,340.755 113.502,310.045C158.474,251.043 239.172,230.083 310.167,239.542C366.8,251.114 417.496,282.083 464.106,314.937C499.687,340.947 494.424,386.901 467.513,416.561C447.514,458.253 435.384,510.669 392.972,535.769C357.702,530.765 285.929,499.919 295.053,567.109C293.307,572.583 288.574,576.766 283.055,577.939ZM61.328,312.968C-7.812,270.074 -22.105,158.914 38.983,103.146C78.501,86.854 108.484,130.706 117.539,163.745C139.658,201.175 144.534,251.681 110.747,284.014C97.761,298.396 80.451,309.184 61.328,312.968ZM478.917,307.527C444.144,287.96 394.945,249.724 417.84,204.81C440.249,169.956 457.448,114.939 504.365,109.547C547.652,106.381 565.968,153.885 565.473,189.858C564.413,233.528 547.168,283.537 506.835,305.23C498.109,308.944 488.126,310.186 478.917,307.527ZM186.306,233.676C134.853,202.645 131.881,135.537 127.723,82.162C126.904,30.716 203.281,-15.433 233.737,38.957C254.749,83.777 279.77,136.476 260.481,186.216C248.285,215.76 215.587,228.543 186.306,233.676ZM373.945,233.44C312.854,235.254 281.078,163.955 296.87,111.564C297.234,69.569 312.555,-3.323 368.779,8.232C429.464,31.7 442.352,114.303 413.449,167.095C398.917,188.449 400.15,220.935 373.945,233.44Z" style="fill:rgb(106,235,183);fill-rule:nonzero;"/>
    </g>
</svg>
